<svg width="44" height="44" viewBox="0 0 44 44" fill="none" xmlns="http://www.w3.org/2000/svg">
<g clip-path="url(#clip0_1905_4967)">
<circle cx="21.6211" cy="21.6191" r="18.9179" fill="#3A2C39"/>
<path fill-rule="evenodd" clip-rule="evenodd" d="M37.0221 6.31084C32.9584 2.24353 27.5559 0.0018093 21.8005 0C9.94053 0 0.28792 9.6508 0.282492 21.5162C0.280683 25.3085 1.27218 29.0103 3.15566 32.2743L0.101562 43.4232L11.5074 40.4306C14.6501 42.1458 18.1891 43.0487 21.7896 43.0505H21.7987C33.6568 43.0505 43.3112 33.3979 43.3167 21.5325C43.3203 15.7843 41.084 10.3763 37.0221 6.31084ZM21.8005 39.4156H21.7933C18.5836 39.4156 15.4372 38.5526 12.6907 36.9224L12.0375 36.5352L5.26892 38.3101L7.07641 31.7098L6.65123 31.0331C4.86002 28.1853 3.91557 24.8942 3.91737 21.5162C3.92099 11.6555 11.9452 3.63307 21.8095 3.63307C26.5861 3.63307 31.0768 5.49665 34.4529 8.87642C37.8291 12.258 39.6872 16.7505 39.6854 21.5289C39.68 31.3932 31.6576 39.4156 21.8005 39.4156Z" fill="#3A2C39"/>
<path d="M27.9283 24.2723C28.4222 24.4514 31.0656 25.7523 31.603 26.0219C32.1404 26.2915 32.4986 26.4254 32.6325 26.6515C32.7682 26.8741 32.7682 27.9524 32.3195 29.2081C31.8708 30.4637 29.7231 31.6108 28.69 31.7646C27.7637 31.9021 26.5912 31.96 25.303 31.5511C24.5232 31.3033 23.5209 30.9722 22.2381 30.4185C16.8445 28.0899 13.3218 22.6584 13.0541 22.3002L13.0477 22.2916C12.7572 21.9031 10.8594 19.3653 10.8594 16.7384C10.8594 14.0932 12.2489 12.7923 12.741 12.2531C13.2332 11.714 13.8158 11.5801 14.174 11.5801C14.5341 11.5801 14.8923 11.5819 15.2053 11.5982C15.5364 11.6145 15.9797 11.4715 16.4157 12.5209C16.8626 13.5974 17.9374 16.2445 18.0731 16.5122C18.2088 16.7818 18.2974 17.0966 18.1183 17.4549C17.9374 17.8149 17.8487 18.0393 17.5773 18.3505C17.3077 18.6653 17.0128 19.0525 16.7704 19.2931C16.5026 19.5609 16.2221 19.8504 16.5351 20.3896C16.8482 20.9287 17.9283 22.6892 19.5259 24.1149C21.5795 25.9477 23.3128 26.514 23.8501 26.7836C24.3875 27.0532 24.7023 27.008 25.0153 26.6497C25.3302 26.2897 26.3578 25.0775 26.7179 24.5401C27.0779 24.0027 27.4362 24.0932 27.9283 24.2723Z" fill="#F9F9F9"/>
<path d="M4.05469 39.188L5.94648 32.4316L11.8921 37.5665L4.05469 39.188Z" fill="#3A2C39"/>
</g>
<defs>
<clipPath id="clip0_1905_4967">
<rect width="43.4232" height="43.4232" fill="white"/>
</clipPath>
</defs>
</svg>
