<svg width="668" height="292" viewBox="0 0 668 292" fill="none" xmlns="http://www.w3.org/2000/svg">
<path d="M65.8161 0H601.674C637.849 0 667.484 31.5363 667.484 70.0373V169.057C667.484 195.766 653.205 219.208 632.378 231C633.576 258.56 644.127 274.893 649.195 285.834C650.668 288.959 647.728 292.513 644.525 291.376C608.881 278.447 585.12 257.845 569.098 239.238H65.8161C29.6342 239.238 -0.000875477 207.695 -0.000875477 169.2V70.1802C-0.000875477 31.5363 29.6342 0 65.8161 0Z" fill="#F2D9EE"/>
<path d="M112.29 83.27L110.1 82.22L116.94 71H119.85L112.29 83.27ZM109.8 92V81.92H112.32V92H109.8ZM109.83 83.27L102.27 71H105.21L112.02 82.22L109.83 83.27ZM127.048 92.36C125.588 92.36 124.288 92.03 123.148 91.37C122.028 90.69 121.148 89.76 120.508 88.58C119.868 87.4 119.548 86.04 119.548 84.5C119.548 82.96 119.858 81.6 120.478 80.42C121.118 79.24 121.998 78.32 123.118 77.66C124.258 76.98 125.548 76.64 126.988 76.64C128.468 76.64 129.768 76.98 130.888 77.66C132.028 78.32 132.908 79.24 133.528 80.42C134.168 81.6 134.488 82.96 134.488 84.5C134.488 86.04 134.168 87.4 133.528 88.58C132.908 89.76 132.038 90.69 130.918 91.37C129.798 92.03 128.508 92.36 127.048 92.36ZM127.048 90.14C128.048 90.14 128.918 89.9 129.658 89.42C130.398 88.94 130.978 88.28 131.398 87.44C131.838 86.6 132.058 85.62 132.058 84.5C132.058 83.38 131.838 82.4 131.398 81.56C130.978 80.72 130.388 80.06 129.628 79.58C128.868 79.1 127.988 78.86 126.988 78.86C126.008 78.86 125.138 79.1 124.378 79.58C123.638 80.06 123.048 80.72 122.608 81.56C122.188 82.4 121.978 83.38 121.978 84.5C121.978 85.6 122.188 86.58 122.608 87.44C123.048 88.28 123.648 88.94 124.408 89.42C125.188 89.9 126.068 90.14 127.048 90.14ZM148.111 92L147.961 89.24V77H150.361V92H148.111ZM137.431 84.68V77H139.831V84.68H137.431ZM139.831 84.68C139.831 86.16 140.001 87.29 140.341 88.07C140.681 88.85 141.151 89.39 141.751 89.69C142.371 89.97 143.061 90.11 143.821 90.11C145.121 90.11 146.131 89.64 146.851 88.7C147.591 87.76 147.961 86.45 147.961 84.77H149.131C149.131 86.35 148.901 87.71 148.441 88.85C147.981 89.99 147.311 90.86 146.431 91.46C145.571 92.06 144.511 92.36 143.251 92.36C142.091 92.36 141.071 92.13 140.191 91.67C139.311 91.19 138.631 90.44 138.151 89.42C137.671 88.38 137.431 87.04 137.431 85.4V84.68H139.831ZM171.201 92L171.081 89.54V84.08C171.081 82.9 170.951 81.93 170.691 81.17C170.431 80.39 170.021 79.8 169.461 79.4C168.901 79 168.171 78.8 167.271 78.8C166.451 78.8 165.741 78.97 165.141 79.31C164.561 79.63 164.081 80.15 163.701 80.87L161.541 80.03C161.921 79.33 162.381 78.73 162.921 78.23C163.461 77.71 164.091 77.32 164.811 77.06C165.531 76.78 166.351 76.64 167.271 76.64C168.671 76.64 169.821 76.92 170.721 77.48C171.641 78.02 172.331 78.83 172.791 79.91C173.251 80.97 173.471 82.29 173.451 83.87L173.421 92H171.201ZM166.701 92.36C164.941 92.36 163.561 91.96 162.561 91.16C161.581 90.34 161.091 89.21 161.091 87.77C161.091 86.25 161.591 85.09 162.591 84.29C163.611 83.47 165.031 83.06 166.851 83.06H171.141V85.07H167.391C165.991 85.07 164.991 85.3 164.391 85.76C163.811 86.22 163.521 86.88 163.521 87.74C163.521 88.52 163.811 89.14 164.391 89.6C164.971 90.04 165.781 90.26 166.821 90.26C167.681 90.26 168.431 90.08 169.071 89.72C169.711 89.34 170.201 88.81 170.541 88.13C170.901 87.43 171.081 86.61 171.081 85.67H172.101C172.101 87.71 171.641 89.34 170.721 90.56C169.801 91.76 168.461 92.36 166.701 92.36ZM178.574 83.87C178.574 82.25 178.884 80.94 179.504 79.94C180.124 78.92 180.914 78.17 181.874 77.69C182.854 77.19 183.884 76.94 184.964 76.94V79.19C184.084 79.19 183.234 79.34 182.414 79.64C181.614 79.92 180.954 80.39 180.434 81.05C179.914 81.71 179.654 82.61 179.654 83.75L178.574 83.87ZM177.254 92V77H179.654V92H177.254ZM193.961 92.36C192.501 92.36 191.211 92.03 190.091 91.37C188.971 90.69 188.091 89.76 187.451 88.58C186.831 87.4 186.521 86.04 186.521 84.5C186.521 82.96 186.831 81.6 187.451 80.42C188.091 79.24 188.961 78.32 190.061 77.66C191.181 76.98 192.461 76.64 193.901 76.64C195.301 76.64 196.511 76.99 197.531 77.69C198.551 78.37 199.341 79.33 199.901 80.57C200.461 81.81 200.741 83.27 200.741 84.95H188.351L188.951 84.44C188.951 85.64 189.161 86.67 189.581 87.53C190.021 88.39 190.631 89.05 191.411 89.51C192.191 89.95 193.081 90.17 194.081 90.17C195.141 90.17 196.031 89.92 196.751 89.42C197.491 88.92 198.061 88.26 198.461 87.44L200.531 88.49C200.151 89.27 199.641 89.95 199.001 90.53C198.381 91.11 197.641 91.56 196.781 91.88C195.941 92.2 195.001 92.36 193.961 92.36ZM189.101 83.42L188.471 82.94H198.821L198.191 83.45C198.191 82.49 198.001 81.66 197.621 80.96C197.241 80.26 196.731 79.72 196.091 79.34C195.451 78.96 194.711 78.77 193.871 78.77C193.051 78.77 192.271 78.96 191.531 79.34C190.811 79.72 190.221 80.26 189.761 80.96C189.321 81.64 189.101 82.46 189.101 83.42ZM215.77 92L221.89 77H224.41L218.14 92H215.77ZM215.62 92L209.35 77H211.84L217.96 92H215.62ZM232.984 92.36C231.524 92.36 230.234 92.03 229.114 91.37C227.994 90.69 227.114 89.76 226.474 88.58C225.854 87.4 225.544 86.04 225.544 84.5C225.544 82.96 225.854 81.6 226.474 80.42C227.114 79.24 227.984 78.32 229.084 77.66C230.204 76.98 231.484 76.64 232.924 76.64C234.324 76.64 235.534 76.99 236.554 77.69C237.574 78.37 238.364 79.33 238.924 80.57C239.484 81.81 239.764 83.27 239.764 84.95H227.374L227.974 84.44C227.974 85.64 228.184 86.67 228.604 87.53C229.044 88.39 229.654 89.05 230.434 89.51C231.214 89.95 232.104 90.17 233.104 90.17C234.164 90.17 235.054 89.92 235.774 89.42C236.514 88.92 237.084 88.26 237.484 87.44L239.554 88.49C239.174 89.27 238.664 89.95 238.024 90.53C237.404 91.11 236.664 91.56 235.804 91.88C234.964 92.2 234.024 92.36 232.984 92.36ZM228.124 83.42L227.494 82.94H237.844L237.214 83.45C237.214 82.49 237.024 81.66 236.644 80.96C236.264 80.26 235.754 79.72 235.114 79.34C234.474 78.96 233.734 78.77 232.894 78.77C232.074 78.77 231.294 78.96 230.554 79.34C229.834 79.72 229.244 80.26 228.784 80.96C228.344 81.64 228.124 82.46 228.124 83.42ZM244.111 83.87C244.111 82.25 244.421 80.94 245.041 79.94C245.661 78.92 246.451 78.17 247.411 77.69C248.391 77.19 249.421 76.94 250.501 76.94V79.19C249.621 79.19 248.771 79.34 247.951 79.64C247.151 79.92 246.491 80.39 245.971 81.05C245.451 81.71 245.191 82.61 245.191 83.75L244.111 83.87ZM242.791 92V77H245.191V92H242.791ZM254.278 98.36C253.898 98.36 253.458 98.28 252.958 98.12C252.458 97.98 251.928 97.79 251.368 97.55L252.268 95.54C252.728 95.74 253.128 95.89 253.468 95.99C253.828 96.09 254.108 96.14 254.308 96.14C254.848 96.14 255.288 95.99 255.628 95.69C255.988 95.41 256.288 95 256.528 94.46L258.238 90.38L263.788 77H266.368L259.168 94.1C258.788 94.98 258.388 95.74 257.968 96.38C257.568 97.02 257.078 97.51 256.498 97.85C255.918 98.19 255.178 98.36 254.278 98.36ZM257.578 92L251.098 77H253.648L259.228 90.35L259.948 92H257.578ZM281.771 92.36C280.311 92.36 279.181 91.98 278.381 91.22C277.581 90.46 277.181 89.39 277.181 88.01V72.32H279.581V87.77C279.581 88.53 279.781 89.12 280.181 89.54C280.601 89.94 281.181 90.14 281.921 90.14C282.161 90.14 282.391 90.11 282.611 90.05C282.851 89.97 283.161 89.79 283.541 89.51L284.471 91.46C283.951 91.8 283.481 92.03 283.061 92.15C282.641 92.29 282.211 92.36 281.771 92.36ZM274.571 79.13V77H284.081V79.13H274.571ZM296.621 92L296.501 89.54V84.08C296.501 82.9 296.371 81.93 296.111 81.17C295.851 80.39 295.441 79.8 294.881 79.4C294.321 79 293.591 78.8 292.691 78.8C291.871 78.8 291.161 78.97 290.561 79.31C289.981 79.63 289.501 80.15 289.121 80.87L286.961 80.03C287.341 79.33 287.801 78.73 288.341 78.23C288.881 77.71 289.511 77.32 290.231 77.06C290.951 76.78 291.771 76.64 292.691 76.64C294.091 76.64 295.241 76.92 296.141 77.48C297.061 78.02 297.751 78.83 298.211 79.91C298.671 80.97 298.891 82.29 298.871 83.87L298.841 92H296.621ZM292.121 92.36C290.361 92.36 288.981 91.96 287.981 91.16C287.001 90.34 286.511 89.21 286.511 87.77C286.511 86.25 287.011 85.09 288.011 84.29C289.031 83.47 290.451 83.06 292.271 83.06H296.561V85.07H292.811C291.411 85.07 290.411 85.3 289.811 85.76C289.231 86.22 288.941 86.88 288.941 87.74C288.941 88.52 289.231 89.14 289.811 89.6C290.391 90.04 291.201 90.26 292.241 90.26C293.101 90.26 293.851 90.08 294.491 89.72C295.131 89.34 295.621 88.81 295.961 88.13C296.321 87.43 296.501 86.61 296.501 85.67H297.521C297.521 87.71 297.061 89.34 296.141 90.56C295.221 91.76 293.881 92.36 292.121 92.36ZM302.674 92V71H305.074V92H302.674ZM315.836 92.36C314.376 92.36 313.086 92.03 311.966 91.37C310.846 90.69 309.966 89.76 309.326 88.58C308.706 87.4 308.396 86.04 308.396 84.5C308.396 82.96 308.706 81.6 309.326 80.42C309.966 79.24 310.836 78.32 311.936 77.66C313.056 76.98 314.336 76.64 315.776 76.64C317.176 76.64 318.386 76.99 319.406 77.69C320.426 78.37 321.216 79.33 321.776 80.57C322.336 81.81 322.616 83.27 322.616 84.95H310.226L310.826 84.44C310.826 85.64 311.036 86.67 311.456 87.53C311.896 88.39 312.506 89.05 313.286 89.51C314.066 89.95 314.956 90.17 315.956 90.17C317.016 90.17 317.906 89.92 318.626 89.42C319.366 88.92 319.936 88.26 320.336 87.44L322.406 88.49C322.026 89.27 321.516 89.95 320.876 90.53C320.256 91.11 319.516 91.56 318.656 91.88C317.816 92.2 316.876 92.36 315.836 92.36ZM310.976 83.42L310.346 82.94H320.696L320.066 83.45C320.066 82.49 319.876 81.66 319.496 80.96C319.116 80.26 318.606 79.72 317.966 79.34C317.326 78.96 316.586 78.77 315.746 78.77C314.926 78.77 314.146 78.96 313.406 79.34C312.686 79.72 312.096 80.26 311.636 80.96C311.196 81.64 310.976 82.46 310.976 83.42ZM325.643 92V77H327.893L328.043 79.76V92H325.643ZM336.173 92V84.32H338.573V92H336.173ZM336.173 84.32C336.173 82.84 336.003 81.71 335.663 80.93C335.323 80.15 334.853 79.62 334.253 79.34C333.653 79.04 332.973 78.89 332.213 78.89C330.893 78.89 329.863 79.36 329.123 80.3C328.403 81.22 328.043 82.53 328.043 84.23H326.873C326.873 82.65 327.103 81.29 327.563 80.15C328.023 79.01 328.693 78.14 329.573 77.54C330.453 76.94 331.513 76.64 332.753 76.64C333.933 76.64 334.953 76.88 335.813 77.36C336.693 77.82 337.373 78.56 337.853 79.58C338.353 80.6 338.593 81.94 338.573 83.6V84.32H336.173ZM348.011 92.36C346.551 92.36 345.421 91.98 344.621 91.22C343.821 90.46 343.421 89.39 343.421 88.01V72.32H345.821V87.77C345.821 88.53 346.021 89.12 346.421 89.54C346.841 89.94 347.421 90.14 348.161 90.14C348.401 90.14 348.631 90.11 348.851 90.05C349.091 89.97 349.401 89.79 349.781 89.51L350.711 91.46C350.191 91.8 349.721 92.03 349.301 92.15C348.881 92.29 348.451 92.36 348.011 92.36ZM340.811 79.13V77H350.321V79.13H340.811ZM360.191 92.36C358.731 92.36 357.441 92.03 356.321 91.37C355.201 90.69 354.321 89.76 353.681 88.58C353.061 87.4 352.751 86.04 352.751 84.5C352.751 82.96 353.061 81.6 353.681 80.42C354.321 79.24 355.191 78.32 356.291 77.66C357.411 76.98 358.691 76.64 360.131 76.64C361.531 76.64 362.741 76.99 363.761 77.69C364.781 78.37 365.571 79.33 366.131 80.57C366.691 81.81 366.971 83.27 366.971 84.95H354.581L355.181 84.44C355.181 85.64 355.391 86.67 355.811 87.53C356.251 88.39 356.861 89.05 357.641 89.51C358.421 89.95 359.311 90.17 360.311 90.17C361.371 90.17 362.261 89.92 362.981 89.42C363.721 88.92 364.291 88.26 364.691 87.44L366.761 88.49C366.381 89.27 365.871 89.95 365.231 90.53C364.611 91.11 363.871 91.56 363.011 91.88C362.171 92.2 361.231 92.36 360.191 92.36ZM355.331 83.42L354.701 82.94H365.051L364.421 83.45C364.421 82.49 364.231 81.66 363.851 80.96C363.471 80.26 362.961 79.72 362.321 79.34C361.681 78.96 360.941 78.77 360.101 78.77C359.281 78.77 358.501 78.96 357.761 79.34C357.041 79.72 356.451 80.26 355.991 80.96C355.551 81.64 355.331 82.46 355.331 83.42ZM381.098 92L380.978 89.21V71H383.378V92H381.098ZM375.908 92.36C374.568 92.36 373.388 92.03 372.368 91.37C371.348 90.71 370.548 89.79 369.968 88.61C369.408 87.41 369.128 86.04 369.128 84.5C369.128 82.94 369.408 81.57 369.968 80.39C370.548 79.21 371.348 78.29 372.368 77.63C373.388 76.97 374.568 76.64 375.908 76.64C377.168 76.64 378.268 76.97 379.208 77.63C380.168 78.29 380.908 79.21 381.428 80.39C381.948 81.57 382.208 82.94 382.208 84.5C382.208 86.04 381.948 87.41 381.428 88.61C380.908 89.79 380.168 90.71 379.208 91.37C378.268 92.03 377.168 92.36 375.908 92.36ZM376.448 90.17C377.328 90.17 378.108 89.93 378.788 89.45C379.468 88.97 379.998 88.3 380.378 87.44C380.778 86.58 380.978 85.6 380.978 84.5C380.978 83.4 380.778 82.42 380.378 81.56C379.998 80.7 379.468 80.03 378.788 79.55C378.108 79.07 377.318 78.83 376.418 78.83C375.478 78.83 374.638 79.07 373.898 79.55C373.178 80.03 372.608 80.7 372.188 81.56C371.768 82.42 371.558 83.4 371.558 84.5C371.558 85.6 371.768 86.58 372.188 87.44C372.608 88.3 373.188 88.97 373.928 89.45C374.668 89.93 375.508 90.17 376.448 90.17ZM404.229 92L404.109 89.54V84.08C404.109 82.9 403.979 81.93 403.719 81.17C403.459 80.39 403.049 79.8 402.489 79.4C401.929 79 401.199 78.8 400.299 78.8C399.479 78.8 398.769 78.97 398.169 79.31C397.589 79.63 397.109 80.15 396.729 80.87L394.569 80.03C394.949 79.33 395.409 78.73 395.949 78.23C396.489 77.71 397.119 77.32 397.839 77.06C398.559 76.78 399.379 76.64 400.299 76.64C401.699 76.64 402.849 76.92 403.749 77.48C404.669 78.02 405.359 78.83 405.819 79.91C406.279 80.97 406.499 82.29 406.479 83.87L406.449 92H404.229ZM399.729 92.36C397.969 92.36 396.589 91.96 395.589 91.16C394.609 90.34 394.119 89.21 394.119 87.77C394.119 86.25 394.619 85.09 395.619 84.29C396.639 83.47 398.059 83.06 399.879 83.06H404.169V85.07H400.419C399.019 85.07 398.019 85.3 397.419 85.76C396.839 86.22 396.549 86.88 396.549 87.74C396.549 88.52 396.839 89.14 397.419 89.6C397.999 90.04 398.809 90.26 399.849 90.26C400.709 90.26 401.459 90.08 402.099 89.72C402.739 89.34 403.229 88.81 403.569 88.13C403.929 87.43 404.109 86.61 404.109 85.67H405.129C405.129 87.71 404.669 89.34 403.749 90.56C402.829 91.76 401.489 92.36 399.729 92.36ZM410.282 92V77H412.532L412.682 79.76V92H410.282ZM420.812 92V84.32H423.212V92H420.812ZM420.812 84.32C420.812 82.84 420.642 81.71 420.302 80.93C419.962 80.15 419.492 79.62 418.892 79.34C418.292 79.04 417.612 78.89 416.852 78.89C415.532 78.89 414.502 79.36 413.762 80.3C413.042 81.22 412.682 82.53 412.682 84.23H411.512C411.512 82.65 411.742 81.29 412.202 80.15C412.662 79.01 413.332 78.14 414.212 77.54C415.092 76.94 416.152 76.64 417.392 76.64C418.572 76.64 419.592 76.88 420.452 77.36C421.332 77.82 422.012 78.56 422.492 79.58C422.992 80.6 423.232 81.94 423.212 83.6V84.32H420.812ZM438.11 92L437.99 89.21V71H440.39V92H438.11ZM432.92 92.36C431.58 92.36 430.4 92.03 429.38 91.37C428.36 90.71 427.56 89.79 426.98 88.61C426.42 87.41 426.14 86.04 426.14 84.5C426.14 82.94 426.42 81.57 426.98 80.39C427.56 79.21 428.36 78.29 429.38 77.63C430.4 76.97 431.58 76.64 432.92 76.64C434.18 76.64 435.28 76.97 436.22 77.63C437.18 78.29 437.92 79.21 438.44 80.39C438.96 81.57 439.22 82.94 439.22 84.5C439.22 86.04 438.96 87.41 438.44 88.61C437.92 89.79 437.18 90.71 436.22 91.37C435.28 92.03 434.18 92.36 432.92 92.36ZM433.46 90.17C434.34 90.17 435.12 89.93 435.8 89.45C436.48 88.97 437.01 88.3 437.39 87.44C437.79 86.58 437.99 85.6 437.99 84.5C437.99 83.4 437.79 82.42 437.39 81.56C437.01 80.7 436.48 80.03 435.8 79.55C435.12 79.07 434.33 78.83 433.43 78.83C432.49 78.83 431.65 79.07 430.91 79.55C430.19 80.03 429.62 80.7 429.2 81.56C428.78 82.42 428.57 83.4 428.57 84.5C428.57 85.6 428.78 86.58 429.2 87.44C429.62 88.3 430.2 88.97 430.94 89.45C431.68 89.93 432.52 90.17 433.46 90.17ZM452.69 92V71H455.24V92H452.69ZM468.877 83.87C468.877 82.25 469.187 80.94 469.807 79.94C470.427 78.92 471.217 78.17 472.177 77.69C473.157 77.19 474.187 76.94 475.267 76.94V79.19C474.387 79.19 473.537 79.34 472.717 79.64C471.917 79.92 471.257 80.39 470.737 81.05C470.217 81.71 469.957 82.61 469.957 83.75L468.877 83.87ZM467.557 92V77H469.957V92H467.557ZM484.264 92.36C482.804 92.36 481.514 92.03 480.394 91.37C479.274 90.69 478.394 89.76 477.754 88.58C477.134 87.4 476.824 86.04 476.824 84.5C476.824 82.96 477.134 81.6 477.754 80.42C478.394 79.24 479.264 78.32 480.364 77.66C481.484 76.98 482.764 76.64 484.204 76.64C485.604 76.64 486.814 76.99 487.834 77.69C488.854 78.37 489.644 79.33 490.204 80.57C490.764 81.81 491.044 83.27 491.044 84.95H478.654L479.254 84.44C479.254 85.64 479.464 86.67 479.884 87.53C480.324 88.39 480.934 89.05 481.714 89.51C482.494 89.95 483.384 90.17 484.384 90.17C485.444 90.17 486.334 89.92 487.054 89.42C487.794 88.92 488.364 88.26 488.764 87.44L490.834 88.49C490.454 89.27 489.944 89.95 489.304 90.53C488.684 91.11 487.944 91.56 487.084 91.88C486.244 92.2 485.304 92.36 484.264 92.36ZM479.404 83.42L478.774 82.94H489.124L488.494 83.45C488.494 82.49 488.304 81.66 487.924 80.96C487.544 80.26 487.034 79.72 486.394 79.34C485.754 78.96 485.014 78.77 484.174 78.77C483.354 78.77 482.574 78.96 481.834 79.34C481.114 79.72 480.524 80.26 480.064 80.96C479.624 81.64 479.404 82.46 479.404 83.42ZM503.311 92L503.191 89.54V84.08C503.191 82.9 503.061 81.93 502.801 81.17C502.541 80.39 502.131 79.8 501.571 79.4C501.011 79 500.281 78.8 499.381 78.8C498.561 78.8 497.851 78.97 497.251 79.31C496.671 79.63 496.191 80.15 495.811 80.87L493.651 80.03C494.031 79.33 494.491 78.73 495.031 78.23C495.571 77.71 496.201 77.32 496.921 77.06C497.641 76.78 498.461 76.64 499.381 76.64C500.781 76.64 501.931 76.92 502.831 77.48C503.751 78.02 504.441 78.83 504.901 79.91C505.361 80.97 505.581 82.29 505.561 83.87L505.531 92H503.311ZM498.811 92.36C497.051 92.36 495.671 91.96 494.671 91.16C493.691 90.34 493.201 89.21 493.201 87.77C493.201 86.25 493.701 85.09 494.701 84.29C495.721 83.47 497.141 83.06 498.961 83.06H503.251V85.07H499.501C498.101 85.07 497.101 85.3 496.501 85.76C495.921 86.22 495.631 86.88 495.631 87.74C495.631 88.52 495.921 89.14 496.501 89.6C497.081 90.04 497.891 90.26 498.931 90.26C499.791 90.26 500.541 90.08 501.181 89.72C501.821 89.34 502.311 88.81 502.651 88.13C503.011 87.43 503.191 86.61 503.191 85.67H504.211C504.211 87.71 503.751 89.34 502.831 90.56C501.911 91.76 500.571 92.36 498.811 92.36ZM509.364 92V71H511.764V92H509.364ZM515.955 92V71H518.355V92H515.955ZM523.897 98.36C523.517 98.36 523.077 98.28 522.577 98.12C522.077 97.98 521.547 97.79 520.987 97.55L521.887 95.54C522.347 95.74 522.747 95.89 523.087 95.99C523.447 96.09 523.727 96.14 523.927 96.14C524.467 96.14 524.907 95.99 525.247 95.69C525.607 95.41 525.907 95 526.147 94.46L527.857 90.38L533.407 77H535.987L528.787 94.1C528.407 94.98 528.007 95.74 527.587 96.38C527.187 97.02 526.697 97.51 526.117 97.85C525.537 98.19 524.797 98.36 523.897 98.36ZM527.197 92L520.717 77H523.267L528.847 90.35L529.567 92H527.197ZM104.1 128V107H106.5V128H104.1ZM110.842 128V113H113.242V128H110.842ZM112.072 109.52C111.672 109.52 111.322 109.37 111.022 109.07C110.722 108.77 110.572 108.42 110.572 108.02C110.572 107.6 110.722 107.25 111.022 106.97C111.322 106.67 111.672 106.52 112.072 106.52C112.492 106.52 112.842 106.67 113.122 106.97C113.422 107.25 113.572 107.6 113.572 108.02C113.572 108.42 113.422 108.77 113.122 109.07C112.842 109.37 112.492 109.52 112.072 109.52ZM120.004 123.17L118.474 121.52L126.454 113H129.484L120.004 123.17ZM117.664 128V107H120.064V128H117.664ZM127.114 128L121.414 119.39L122.974 117.71L130.084 128H127.114ZM138.473 128.36C137.013 128.36 135.723 128.03 134.603 127.37C133.483 126.69 132.603 125.76 131.963 124.58C131.343 123.4 131.033 122.04 131.033 120.5C131.033 118.96 131.343 117.6 131.963 116.42C132.603 115.24 133.473 114.32 134.573 113.66C135.693 112.98 136.973 112.64 138.413 112.64C139.813 112.64 141.023 112.99 142.043 113.69C143.063 114.37 143.853 115.33 144.413 116.57C144.973 117.81 145.253 119.27 145.253 120.95H132.863L133.463 120.44C133.463 121.64 133.673 122.67 134.093 123.53C134.533 124.39 135.143 125.05 135.923 125.51C136.703 125.95 137.593 126.17 138.593 126.17C139.653 126.17 140.543 125.92 141.263 125.42C142.003 124.92 142.573 124.26 142.973 123.44L145.043 124.49C144.663 125.27 144.153 125.95 143.513 126.53C142.893 127.11 142.153 127.56 141.293 127.88C140.453 128.2 139.513 128.36 138.473 128.36ZM133.613 119.42L132.983 118.94H143.333L142.703 119.45C142.703 118.49 142.513 117.66 142.133 116.96C141.753 116.26 141.243 115.72 140.603 115.34C139.963 114.96 139.223 114.77 138.383 114.77C137.563 114.77 136.783 114.96 136.043 115.34C135.323 115.72 134.733 116.26 134.273 116.96C133.833 117.64 133.613 118.46 133.613 119.42ZM169.312 128L174.382 113H176.812L171.712 128H169.312ZM159.112 128L164.182 113H166.432L161.422 128H159.112ZM158.992 128L153.892 113H156.322L161.332 128H158.992ZM169.312 128L164.302 113H166.582L171.592 128H169.312ZM179.217 128V107H181.617V128H179.217ZM189.777 128V120.32H192.177V128H189.777ZM189.777 120.32C189.777 118.84 189.597 117.71 189.237 116.93C188.897 116.15 188.427 115.62 187.827 115.34C187.227 115.04 186.547 114.89 185.787 114.89C184.467 114.89 183.437 115.36 182.697 116.3C181.977 117.22 181.617 118.53 181.617 120.23H180.447C180.447 118.65 180.677 117.29 181.137 116.15C181.617 115.01 182.297 114.14 183.177 113.54C184.057 112.94 185.117 112.64 186.357 112.64C187.517 112.64 188.537 112.88 189.417 113.36C190.297 113.82 190.977 114.56 191.457 115.58C191.957 116.6 192.197 117.94 192.177 119.6V120.32H189.777ZM205.186 128L205.066 125.54V120.08C205.066 118.9 204.936 117.93 204.676 117.17C204.416 116.39 204.006 115.8 203.446 115.4C202.886 115 202.156 114.8 201.256 114.8C200.436 114.8 199.726 114.97 199.126 115.31C198.546 115.63 198.066 116.15 197.686 116.87L195.526 116.03C195.906 115.33 196.366 114.73 196.906 114.23C197.446 113.71 198.076 113.32 198.796 113.06C199.516 112.78 200.336 112.64 201.256 112.64C202.656 112.64 203.806 112.92 204.706 113.48C205.626 114.02 206.316 114.83 206.776 115.91C207.236 116.97 207.456 118.29 207.436 119.87L207.406 128H205.186ZM200.686 128.36C198.926 128.36 197.546 127.96 196.546 127.16C195.566 126.34 195.076 125.21 195.076 123.77C195.076 122.25 195.576 121.09 196.576 120.29C197.596 119.47 199.016 119.06 200.836 119.06H205.126V121.07H201.376C199.976 121.07 198.976 121.3 198.376 121.76C197.796 122.22 197.506 122.88 197.506 123.74C197.506 124.52 197.796 125.14 198.376 125.6C198.956 126.04 199.766 126.26 200.806 126.26C201.666 126.26 202.416 126.08 203.056 125.72C203.696 125.34 204.186 124.81 204.526 124.13C204.886 123.43 205.066 122.61 205.066 121.67H206.086C206.086 123.71 205.626 125.34 204.706 126.56C203.786 127.76 202.446 128.36 200.686 128.36ZM216.879 128.36C215.419 128.36 214.289 127.98 213.489 127.22C212.689 126.46 212.289 125.39 212.289 124.01V108.32H214.689V123.77C214.689 124.53 214.889 125.12 215.289 125.54C215.709 125.94 216.289 126.14 217.029 126.14C217.269 126.14 217.499 126.11 217.719 126.05C217.959 125.97 218.269 125.79 218.649 125.51L219.579 127.46C219.059 127.8 218.589 128.03 218.169 128.15C217.749 128.29 217.319 128.36 216.879 128.36ZM209.679 115.13V113H219.189V115.13H209.679ZM231.339 134.36C230.959 134.36 230.519 134.28 230.019 134.12C229.519 133.98 228.989 133.79 228.429 133.55L229.329 131.54C229.789 131.74 230.189 131.89 230.529 131.99C230.889 132.09 231.169 132.14 231.369 132.14C231.909 132.14 232.349 131.99 232.689 131.69C233.049 131.41 233.349 131 233.589 130.46L235.299 126.38L240.849 113H243.429L236.229 130.1C235.849 130.98 235.449 131.74 235.029 132.38C234.629 133.02 234.139 133.51 233.559 133.85C232.979 134.19 232.239 134.36 231.339 134.36ZM234.639 128L228.159 113H230.709L236.289 126.35L237.009 128H234.639ZM252.058 128.36C250.598 128.36 249.298 128.03 248.158 127.37C247.038 126.69 246.158 125.76 245.518 124.58C244.878 123.4 244.558 122.04 244.558 120.5C244.558 118.96 244.868 117.6 245.488 116.42C246.128 115.24 247.008 114.32 248.128 113.66C249.268 112.98 250.558 112.64 251.998 112.64C253.478 112.64 254.778 112.98 255.898 113.66C257.038 114.32 257.918 115.24 258.538 116.42C259.178 117.6 259.498 118.96 259.498 120.5C259.498 122.04 259.178 123.4 258.538 124.58C257.918 125.76 257.048 126.69 255.928 127.37C254.808 128.03 253.518 128.36 252.058 128.36ZM252.058 126.14C253.058 126.14 253.928 125.9 254.668 125.42C255.408 124.94 255.988 124.28 256.408 123.44C256.848 122.6 257.068 121.62 257.068 120.5C257.068 119.38 256.848 118.4 256.408 117.56C255.988 116.72 255.398 116.06 254.638 115.58C253.878 115.1 252.998 114.86 251.998 114.86C251.018 114.86 250.148 115.1 249.388 115.58C248.648 116.06 248.058 116.72 247.618 117.56C247.198 118.4 246.988 119.38 246.988 120.5C246.988 121.6 247.198 122.58 247.618 123.44C248.058 124.28 248.658 124.94 249.418 125.42C250.198 125.9 251.078 126.14 252.058 126.14ZM273.12 128L272.97 125.24V113H275.37V128H273.12ZM262.44 120.68V113H264.84V120.68H262.44ZM264.84 120.68C264.84 122.16 265.01 123.29 265.35 124.07C265.69 124.85 266.16 125.39 266.76 125.69C267.38 125.97 268.07 126.11 268.83 126.11C270.13 126.11 271.14 125.64 271.86 124.7C272.6 123.76 272.97 122.45 272.97 120.77H274.14C274.14 122.35 273.91 123.71 273.45 124.85C272.99 125.99 272.32 126.86 271.44 127.46C270.58 128.06 269.52 128.36 268.26 128.36C267.1 128.36 266.08 128.13 265.2 127.67C264.32 127.19 263.64 126.44 263.16 125.42C262.68 124.38 262.44 123.04 262.44 121.4V120.68H264.84ZM287.121 134V113H289.371L289.521 115.76V134H287.121ZM294.591 128.36C293.331 128.36 292.221 128.03 291.261 127.37C290.321 126.71 289.591 125.79 289.071 124.61C288.551 123.41 288.291 122.04 288.291 120.5C288.291 118.94 288.551 117.57 289.071 116.39C289.591 115.21 290.321 114.29 291.261 113.63C292.221 112.97 293.331 112.64 294.591 112.64C295.931 112.64 297.111 112.97 298.131 113.63C299.151 114.29 299.941 115.21 300.501 116.39C301.081 117.57 301.371 118.94 301.371 120.5C301.371 122.04 301.081 123.41 300.501 124.61C299.941 125.79 299.151 126.71 298.131 127.37C297.111 128.03 295.931 128.36 294.591 128.36ZM294.051 126.17C294.991 126.17 295.821 125.93 296.541 125.45C297.281 124.97 297.861 124.3 298.281 123.44C298.721 122.58 298.941 121.6 298.941 120.5C298.941 119.4 298.731 118.42 298.311 117.56C297.911 116.7 297.341 116.03 296.601 115.55C295.861 115.07 295.021 114.83 294.081 114.83C293.201 114.83 292.411 115.07 291.711 115.55C291.031 116.03 290.491 116.7 290.091 117.56C289.711 118.42 289.521 119.4 289.521 120.5C289.521 121.6 289.711 122.58 290.091 123.44C290.491 124.3 291.031 124.97 291.711 125.45C292.391 125.93 293.171 126.17 294.051 126.17ZM314.986 128L314.836 125.24V113H317.236V128H314.986ZM304.306 120.68V113H306.706V120.68H304.306ZM306.706 120.68C306.706 122.16 306.876 123.29 307.216 124.07C307.556 124.85 308.026 125.39 308.626 125.69C309.246 125.97 309.936 126.11 310.696 126.11C311.996 126.11 313.006 125.64 313.726 124.7C314.466 123.76 314.836 122.45 314.836 120.77H316.006C316.006 122.35 315.776 123.71 315.316 124.85C314.856 125.99 314.186 126.86 313.306 127.46C312.446 128.06 311.386 128.36 310.126 128.36C308.966 128.36 307.946 128.13 307.066 127.67C306.186 127.19 305.506 126.44 305.026 125.42C304.546 124.38 304.306 123.04 304.306 121.4V120.68H306.706ZM327.064 128.36C325.604 128.36 324.474 127.98 323.674 127.22C322.874 126.46 322.474 125.39 322.474 124.01V108.32H324.874V123.77C324.874 124.53 325.074 125.12 325.474 125.54C325.894 125.94 326.474 126.14 327.214 126.14C327.454 126.14 327.684 126.11 327.904 126.05C328.144 125.97 328.454 125.79 328.834 125.51L329.764 127.46C329.244 127.8 328.774 128.03 328.354 128.15C327.934 128.29 327.504 128.36 327.064 128.36ZM319.864 115.13V113H329.374V115.13H319.864ZM345.814 128.36C344.354 128.36 343.224 127.98 342.424 127.22C341.624 126.46 341.224 125.39 341.224 124.01V108.32H343.624V123.77C343.624 124.53 343.824 125.12 344.224 125.54C344.644 125.94 345.224 126.14 345.964 126.14C346.204 126.14 346.434 126.11 346.654 126.05C346.894 125.97 347.204 125.79 347.584 125.51L348.514 127.46C347.994 127.8 347.524 128.03 347.104 128.15C346.684 128.29 346.254 128.36 345.814 128.36ZM338.614 115.13V113H348.124V115.13H338.614ZM358.054 128.36C356.594 128.36 355.294 128.03 354.154 127.37C353.034 126.69 352.154 125.76 351.514 124.58C350.874 123.4 350.554 122.04 350.554 120.5C350.554 118.96 350.864 117.6 351.484 116.42C352.124 115.24 353.004 114.32 354.124 113.66C355.264 112.98 356.554 112.64 357.994 112.64C359.474 112.64 360.774 112.98 361.894 113.66C363.034 114.32 363.914 115.24 364.534 116.42C365.174 117.6 365.494 118.96 365.494 120.5C365.494 122.04 365.174 123.4 364.534 124.58C363.914 125.76 363.044 126.69 361.924 127.37C360.804 128.03 359.514 128.36 358.054 128.36ZM358.054 126.14C359.054 126.14 359.924 125.9 360.664 125.42C361.404 124.94 361.984 124.28 362.404 123.44C362.844 122.6 363.064 121.62 363.064 120.5C363.064 119.38 362.844 118.4 362.404 117.56C361.984 116.72 361.394 116.06 360.634 115.58C359.874 115.1 358.994 114.86 357.994 114.86C357.014 114.86 356.144 115.1 355.384 115.58C354.644 116.06 354.054 116.72 353.614 117.56C353.194 118.4 352.984 119.38 352.984 120.5C352.984 121.6 353.194 122.58 353.614 123.44C354.054 124.28 354.654 124.94 355.414 125.42C356.194 125.9 357.074 126.14 358.054 126.14ZM374.827 134.36C373.867 134.36 372.987 134.26 372.187 134.06C371.407 133.88 370.737 133.67 370.177 133.43C369.637 133.21 369.247 133.02 369.007 132.86L369.907 130.91C370.167 131.05 370.537 131.22 371.017 131.42C371.497 131.64 372.057 131.82 372.697 131.96C373.357 132.12 374.057 132.2 374.797 132.2C375.757 132.2 376.617 132 377.377 131.6C378.157 131.22 378.757 130.61 379.177 129.77C379.617 128.95 379.837 127.89 379.837 126.59V113H382.237V126.56C382.237 128.28 381.917 129.72 381.277 130.88C380.637 132.04 379.757 132.91 378.637 133.49C377.517 134.07 376.247 134.36 374.827 134.36ZM374.737 127.88C373.397 127.88 372.217 127.56 371.197 126.92C370.177 126.28 369.377 125.39 368.797 124.25C368.237 123.09 367.957 121.77 367.957 120.29C367.957 118.77 368.237 117.44 368.797 116.3C369.377 115.14 370.177 114.24 371.197 113.6C372.217 112.96 373.397 112.64 374.737 112.64C375.997 112.64 377.097 112.96 378.037 113.6C378.977 114.24 379.707 115.14 380.227 116.3C380.767 117.44 381.037 118.77 381.037 120.29C381.037 121.79 380.767 123.11 380.227 124.25C379.707 125.39 378.977 126.28 378.037 126.92C377.097 127.56 375.997 127.88 374.737 127.88ZM375.307 125.81C376.187 125.81 376.967 125.57 377.647 125.09C378.327 124.61 378.857 123.96 379.237 123.14C379.617 122.3 379.807 121.33 379.807 120.23C379.807 119.17 379.607 118.23 379.207 117.41C378.827 116.57 378.297 115.92 377.617 115.46C376.957 114.98 376.177 114.74 375.277 114.74C374.337 114.74 373.497 114.98 372.757 115.46C372.037 115.92 371.467 116.57 371.047 117.41C370.647 118.23 370.447 119.17 370.447 120.23C370.447 121.33 370.657 122.3 371.077 123.14C371.497 123.96 372.067 124.61 372.787 125.09C373.527 125.57 374.367 125.81 375.307 125.81ZM393.004 128.36C391.544 128.36 390.254 128.03 389.134 127.37C388.014 126.69 387.134 125.76 386.494 124.58C385.874 123.4 385.564 122.04 385.564 120.5C385.564 118.96 385.874 117.6 386.494 116.42C387.134 115.24 388.004 114.32 389.104 113.66C390.224 112.98 391.504 112.64 392.944 112.64C394.344 112.64 395.554 112.99 396.574 113.69C397.594 114.37 398.384 115.33 398.944 116.57C399.504 117.81 399.784 119.27 399.784 120.95H387.394L387.994 120.44C387.994 121.64 388.204 122.67 388.624 123.53C389.064 124.39 389.674 125.05 390.454 125.51C391.234 125.95 392.124 126.17 393.124 126.17C394.184 126.17 395.074 125.92 395.794 125.42C396.534 124.92 397.104 124.26 397.504 123.44L399.574 124.49C399.194 125.27 398.684 125.95 398.044 126.53C397.424 127.11 396.684 127.56 395.824 127.88C394.984 128.2 394.044 128.36 393.004 128.36ZM388.144 119.42L387.514 118.94H397.864L397.234 119.45C397.234 118.49 397.044 117.66 396.664 116.96C396.284 116.26 395.774 115.72 395.134 115.34C394.494 114.96 393.754 114.77 392.914 114.77C392.094 114.77 391.314 114.96 390.574 115.34C389.854 115.72 389.264 116.26 388.804 116.96C388.364 117.64 388.144 118.46 388.144 119.42ZM408.451 128.36C406.991 128.36 405.861 127.98 405.061 127.22C404.261 126.46 403.861 125.39 403.861 124.01V108.32H406.261V123.77C406.261 124.53 406.461 125.12 406.861 125.54C407.281 125.94 407.861 126.14 408.601 126.14C408.841 126.14 409.071 126.11 409.291 126.05C409.531 125.97 409.841 125.79 410.221 125.51L411.151 127.46C410.631 127.8 410.161 128.03 409.741 128.15C409.321 128.29 408.891 128.36 408.451 128.36ZM401.251 115.13V113H410.761V115.13H401.251ZM414.149 128V107H416.549V128H414.149ZM424.709 128V120.32H427.109V128H424.709ZM424.709 120.32C424.709 118.84 424.529 117.71 424.169 116.93C423.829 116.15 423.359 115.62 422.759 115.34C422.159 115.04 421.479 114.89 420.719 114.89C419.399 114.89 418.369 115.36 417.629 116.3C416.909 117.22 416.549 118.53 416.549 120.23H415.379C415.379 118.65 415.609 117.29 416.069 116.15C416.549 115.01 417.229 114.14 418.109 113.54C418.989 112.94 420.049 112.64 421.289 112.64C422.449 112.64 423.469 112.88 424.349 113.36C425.229 113.82 425.909 114.56 426.389 115.58C426.889 116.6 427.129 117.94 427.109 119.6V120.32H424.709ZM437.447 128.36C435.987 128.36 434.697 128.03 433.577 127.37C432.457 126.69 431.577 125.76 430.937 124.58C430.317 123.4 430.007 122.04 430.007 120.5C430.007 118.96 430.317 117.6 430.937 116.42C431.577 115.24 432.447 114.32 433.547 113.66C434.667 112.98 435.947 112.64 437.387 112.64C438.787 112.64 439.997 112.99 441.017 113.69C442.037 114.37 442.827 115.33 443.387 116.57C443.947 117.81 444.227 119.27 444.227 120.95H431.837L432.437 120.44C432.437 121.64 432.647 122.67 433.067 123.53C433.507 124.39 434.117 125.05 434.897 125.51C435.677 125.95 436.567 126.17 437.567 126.17C438.627 126.17 439.517 125.92 440.237 125.42C440.977 124.92 441.547 124.26 441.947 123.44L444.017 124.49C443.637 125.27 443.127 125.95 442.487 126.53C441.867 127.11 441.127 127.56 440.267 127.88C439.427 128.2 438.487 128.36 437.447 128.36ZM432.587 119.42L431.957 118.94H442.307L441.677 119.45C441.677 118.49 441.487 117.66 441.107 116.96C440.727 116.26 440.217 115.72 439.577 115.34C438.937 114.96 438.197 114.77 437.357 114.77C436.537 114.77 435.757 114.96 435.017 115.34C434.297 115.72 433.707 116.26 433.247 116.96C432.807 117.64 432.587 118.46 432.587 119.42ZM448.574 119.87C448.574 118.25 448.884 116.94 449.504 115.94C450.124 114.92 450.914 114.17 451.874 113.69C452.854 113.19 453.884 112.94 454.964 112.94V115.19C454.084 115.19 453.234 115.34 452.414 115.64C451.614 115.92 450.954 116.39 450.434 117.05C449.914 117.71 449.654 118.61 449.654 119.75L448.574 119.87ZM447.254 128V113H449.654V128H447.254ZM458.411 128.42C457.951 128.42 457.551 128.26 457.211 127.94C456.891 127.6 456.731 127.21 456.731 126.77C456.731 126.31 456.891 125.92 457.211 125.6C457.551 125.26 457.951 125.09 458.411 125.09C458.871 125.09 459.261 125.26 459.581 125.6C459.901 125.92 460.061 126.31 460.061 126.77C460.061 127.21 459.901 127.6 459.581 127.94C459.261 128.26 458.871 128.42 458.411 128.42ZM109.02 164V145.31H102.33V143H118.23V145.31H111.54V164H109.02ZM135.773 164V143H138.293V164H135.773ZM121.343 164V143H123.893V164H121.343ZM123.593 154.34V152.03H136.313V154.34H123.593ZM158.422 164L149.992 143H152.542L161.092 164H158.422ZM141.352 164L149.902 143H152.482L144.052 164H141.352ZM145.402 158.03V155.75H157.072V158.03H145.402ZM164.175 164V143H166.755L179.265 159.86V143H181.815V164H179.265L166.725 147.05V164H164.175ZM189.177 156.8L188.127 154.49L199.167 143H202.347L189.177 156.8ZM187.407 164V143H189.837V164H187.407ZM199.647 164L191.037 153.32L192.687 151.7L202.737 164H199.647ZM212.438 164.36C211.278 164.36 210.248 164.24 209.348 164C208.448 163.74 207.668 163.39 207.008 162.95C206.348 162.49 205.808 161.99 205.388 161.45C204.968 160.89 204.658 160.3 204.458 159.68L206.888 158.84C207.188 159.72 207.788 160.49 208.688 161.15C209.608 161.79 210.728 162.11 212.048 162.11C213.668 162.11 214.938 161.79 215.858 161.15C216.778 160.51 217.238 159.66 217.238 158.6C217.238 157.62 216.828 156.83 216.008 156.23C215.188 155.61 214.108 155.13 212.768 154.79L210.458 154.19C209.518 153.95 208.648 153.6 207.848 153.14C207.068 152.66 206.438 152.06 205.958 151.34C205.498 150.6 205.268 149.72 205.268 148.7C205.268 146.8 205.878 145.32 207.098 144.26C208.338 143.18 210.118 142.64 212.438 142.64C213.818 142.64 215.008 142.87 216.008 143.33C217.008 143.77 217.818 144.34 218.438 145.04C219.078 145.72 219.528 146.46 219.788 147.26L217.388 148.1C217.008 147.1 216.368 146.32 215.468 145.76C214.568 145.18 213.478 144.89 212.198 144.89C210.858 144.89 209.788 145.22 208.988 145.88C208.208 146.52 207.818 147.4 207.818 148.52C207.818 149.48 208.128 150.22 208.748 150.74C209.368 151.24 210.178 151.61 211.178 151.85L213.488 152.42C215.528 152.9 217.088 153.7 218.168 154.82C219.268 155.92 219.818 157.11 219.818 158.39C219.818 159.49 219.538 160.5 218.978 161.42C218.418 162.32 217.588 163.04 216.488 163.58C215.408 164.1 214.058 164.36 212.438 164.36Z" fill="#3A2C39"/>
</svg>
